<?xml version="1.0" encoding="UTF-8"?><svg id="Calque_1" xmlns="http://www.w3.org/2000/svg" viewBox="0 0 667.47 103.27"><defs><style>.cls-1{fill:#fff;}.cls-2{fill:#a09a95;}</style></defs><g id="Illustration_47"><g><path class="cls-2" d="M0,103.26L28.22,35.27C37.08,13.85,57.77,0,80.97,0H481.38l-2.67,6.33H80.97c-20.62,0-39.04,12.31-46.91,31.38L6.86,103.26H0Z"/><path class="cls-1" d="M315.11,103.26l25.19-61.92h67.56c7.17,0,12.2,1.38,15.1,4.16,2.9,2.78,3.86,6.66,2.9,11.66-.34,1.71-.91,3.57-1.74,5.58l-7.86,19.39c-2.69,6.65-6.89,11.83-12.61,15.54-5.71,3.72-12.7,5.58-20.98,5.58h-67.56Zm86.61-38.21c.29-.73,.53-1.41,.72-2.02,.19-.61,.34-1.17,.43-1.65,.35-1.77,.01-2.84-.99-3.21-1-.36-2.61-.55-4.82-.55h-41.84l-11.9,29.35h40.51c2.8,0,5.2-.51,7.17-1.52,1.97-1.01,3.43-2.61,4.37-4.81l6.35-15.6h0Z"/><path class="cls-1" d="M235.39,103.26c-6.73,0-11.47-1.18-14.23-3.52-2.76-2.35-3.68-5.9-2.76-10.66,.34-1.77,.95-3.75,1.82-5.94l8.85-21.68c2.8-6.83,6.74-11.89,11.81-15.18,5.08-3.3,11.63-4.94,19.69-4.94h45.82c6.87,0,11.67,1.18,14.4,3.52,2.72,2.35,3.62,5.9,2.71,10.66-.34,1.77-.95,3.75-1.82,5.94l-8.85,21.68c-2.8,6.83-6.76,11.89-11.86,15.18-5.11,3.3-11.69,4.94-19.75,4.94h-45.84Zm63.99-39.95c.41-.97,.69-1.8,.82-2.48,.29-1.47-.02-2.37-.91-2.71-.9-.34-2.27-.51-4.11-.51h-36.51c-4.28,0-7.21,1.9-8.76,5.69l-7.39,18.08c-.42,1.03-.7,1.86-.82,2.48-.29,1.47,.02,2.36,.93,2.66s2.27,.46,4.13,.46h36.51c2.29,0,4.14-.47,5.55-1.42s2.47-2.33,3.19-4.17l7.39-18.08"/><path class="cls-1" d="M618.23,103.26l-14.1-21.27c-1.65-2.48-4.43-3.97-7.4-3.97h-9.88l-10.32,25.24h-21.4l25.19-61.92h21.4l-9.53,23.41h9.66c3.45,0,6.83-1.06,9.67-3.03l29.33-20.38h26.61l-40.83,28.81c-1.44,1.02-1.83,3-.87,4.48l18.6,28.63h-26.14Z"/><polygon class="cls-1" points="417.84 103.26 443.03 41.34 464.54 41.34 439.35 103.26 417.84 103.26"/><path class="cls-1" d="M555.45,41.34h-67.8c-3.46,0-10.83,.97-14.44,9.72-3.61,8.75-21.27,52.21-21.27,52.21h21.51l10.27-25.24h49.48l-10.26,25.23h21.51s16.79-41.05,19.14-47.05c2.37-6.05,1.44-14.86-8.13-14.86h-.01Zm-53.2,15.25h30.29c9.37,0,7.88,3.67,6.05,8.14h-49.48c2.68-6.59,3.32-8.14,13.14-8.14"/><path class="cls-1" d="M184.74,103.26l-14.1-21.27c-1.65-2.48-4.43-3.97-7.4-3.97h-9.88l-10.32,25.24h-21.4l25.19-61.92h21.4l-9.53,23.41h9.66c3.45,0,6.83-1.06,9.67-3.03l29.33-20.38h26.61l-40.83,28.81c-1.44,1.02-1.83,3-.87,4.48l18.6,28.63h-26.14Z"/></g></g></svg>