<?xml version="1.0" encoding="UTF-8"?><svg id="Calque_1" xmlns="http://www.w3.org/2000/svg" xmlns:xlink="http://www.w3.org/1999/xlink" viewBox="0 0 601.5 104.15"><defs><style>.cls-1{fill:#fff;}.cls-2{fill:#e4032f;}.cls-3{clip-path:url(#clippath-1);}.cls-4{clip-path:url(#clippath);}.cls-5{fill:none;}</style><clipPath id="clippath"><rect class="cls-5" y=".61" width="601.5" height="103.55"/></clipPath><clipPath id="clippath-1"><rect class="cls-5" y=".61" width="601.5" height="103.54"/></clipPath></defs><g id="Illustration_43"><g class="cls-4"><g class="cls-3"><path class="cls-1" d="M468.12,.61h-53.65c-4.27,0-9.35,3.6-10.41,6.27-1.04-3.57-4.23-6.09-7.94-6.27h-52.91c-3.33,0-9.2,.8-12.68,9.2-3.47,8.4-20.69,49.21-20.69,49.21h23.72l14.22-33.28s1.71-8.6,12.61-8.6h20.22c2.35,0,9.2,.8,5.5,8.9-4.1,9.31-13.81,32.97-13.81,32.97h23.83l14.22-33.28s1.69-8.6,12.61-8.6h20.22c2.35,0,9.2,.8,5.5,8.9-4.11,9.31-13.81,32.97-13.81,32.97h23.79s16.29-38.15,18.42-44.01c2.13-5.87,.28-14.4-8.93-14.4h-.01Z"/><polygon class="cls-1" points="156.93 .61 7.21 .61 0 18.16 61.99 18.16 44.63 59.03 68.85 59.03 86.2 18.16 149.32 18.16 156.93 .61"/><path class="cls-1" d="M305.45,.61H170.94l-24.69,58.41h137.96c3.14,0,12.43-5.07,16.57-12.81,4.32-8.06,3.24-18.8-5.47-18.8,20.43,.01,27.23-26.94,10.15-26.81m-34.59,42.74h-90.08l2.74-6.89h89.56c3.31,0,2.13,6.89-2.24,6.89h.01Zm9.19-21.3h-90.08l2.74-6.89h89.56c3.31,0,2.11,6.89-2.24,6.89h.01Z"/><path class="cls-2" d="M601.5,.61l-26.86,65.06c-9.66,23.38-32.24,38.49-57.55,38.49H127.27l2.91-6.9h386.91c22.5,0,42.6-13.43,51.18-34.23L594.04,.61h7.46Z"/></g></g></g></svg>